<svg width="31" height="31" viewBox="0 0 31 31" fill="none" xmlns="http://www.w3.org/2000/svg">
<circle cx="15.2309" cy="15.2317" r="15" transform="rotate(-179.11 15.2309 15.2317)" fill="black" fill-opacity="0.04"/>
<path d="M22.9259 16.0586C23.3225 15.6742 23.3323 15.0412 22.9479 14.6446L16.6836 8.18254C16.2992 7.786 15.6661 7.77616 15.2695 8.16057C14.873 8.54498 14.8631 9.17807 15.2475 9.57461L20.8158 15.3187L15.0718 20.887C14.6752 21.2714 14.6654 21.9045 15.0498 22.301C15.4342 22.6975 16.0673 22.7074 16.4638 22.323L22.9259 16.0586ZM9.23145 15.1387L9.21591 16.1386L22.2143 16.3405L22.2299 15.3406L22.2454 14.3408L9.24698 14.1388L9.23145 15.1387Z" fill="black"/>
</svg>
