<svg width="20" height="20" viewBox="0 0 20 20" fill="none" xmlns="http://www.w3.org/2000/svg">
<path d="M11.228 0.927385C10.8769 0.650389 10.4448 0.5 10 0.5C9.55521 0.5 9.1231 0.650389 8.77201 0.927385L0.388012 7.54018C-0.363988 8.13553 0.0500122 9.35768 1.00301 9.35768H2.00001V17.4715C2.00001 18.0095 2.21073 18.5255 2.5858 18.9059C2.96087 19.2863 3.46958 19.5 4.00001 19.5H8.00001V13.4146C8.00001 12.8766 8.21073 12.3607 8.5858 11.9803C8.96087 11.5999 9.46958 11.3861 10 11.3861C10.5304 11.3861 11.0392 11.5999 11.4142 11.9803C11.7893 12.3607 12 12.8766 12 13.4146V19.5H16C16.5304 19.5 17.0392 19.2863 17.4142 18.9059C17.7893 18.5255 18 18.0095 18 17.4715V9.35768H18.997C19.949 9.35768 20.365 8.13553 19.612 7.54119L11.228 0.927385Z" fill="white"/>
</svg>
